<mxfile host="Electron" agent="Mozilla/5.0 (Windows NT 10.0; Win64; x64) AppleWebKit/537.36 (KHTML, like Gecko) draw.io/24.7.8 Chrome/128.0.6613.36 Electron/32.0.1 Safari/537.36" version="24.7.8">
  <diagram name="Página-1" id="rwdNlfp87hWrhQ46jEKu">
    <mxGraphModel dx="1366" dy="804" grid="1" gridSize="10" guides="1" tooltips="1" connect="1" arrows="1" fold="1" page="1" pageScale="1" pageWidth="827" pageHeight="1169" math="0" shadow="0">
      <root>
        <mxCell id="0" />
        <mxCell id="1" parent="0" />
        <mxCell id="8nVvTNKNgAYmFWrz2rZh-9" style="edgeStyle=orthogonalEdgeStyle;rounded=0;orthogonalLoop=1;jettySize=auto;html=1;" edge="1" parent="1" source="8nVvTNKNgAYmFWrz2rZh-1" target="8nVvTNKNgAYmFWrz2rZh-8">
          <mxGeometry relative="1" as="geometry" />
        </mxCell>
        <mxCell id="8nVvTNKNgAYmFWrz2rZh-1" value="Realizar pedido" style="rounded=1;whiteSpace=wrap;html=1;arcSize=40;fontColor=#000000;fillColor=#ffffc0;strokeColor=#ff0000;" vertex="1" parent="1">
          <mxGeometry x="270" y="255" width="120" height="40" as="geometry" />
        </mxCell>
        <mxCell id="8nVvTNKNgAYmFWrz2rZh-2" value="" style="edgeStyle=orthogonalEdgeStyle;html=1;verticalAlign=bottom;endArrow=open;endSize=8;strokeColor=#ff0000;rounded=0;entryX=1;entryY=0.5;entryDx=0;entryDy=0;" edge="1" source="8nVvTNKNgAYmFWrz2rZh-1" parent="1" target="8nVvTNKNgAYmFWrz2rZh-3">
          <mxGeometry relative="1" as="geometry">
            <mxPoint x="540" y="130" as="targetPoint" />
          </mxGeometry>
        </mxCell>
        <mxCell id="8nVvTNKNgAYmFWrz2rZh-3" value="" style="ellipse;html=1;shape=endState;fillColor=#000000;strokeColor=#ff0000;" vertex="1" parent="1">
          <mxGeometry x="180" y="260" width="30" height="30" as="geometry" />
        </mxCell>
        <mxCell id="8nVvTNKNgAYmFWrz2rZh-4" value="CLient" style="shape=umlFrame;whiteSpace=wrap;html=1;pointerEvents=0;" vertex="1" parent="1">
          <mxGeometry x="150" y="200" width="320" height="1210" as="geometry" />
        </mxCell>
        <mxCell id="8nVvTNKNgAYmFWrz2rZh-7" value="Sistema" style="shape=umlFrame;whiteSpace=wrap;html=1;pointerEvents=0;" vertex="1" parent="1">
          <mxGeometry x="470" y="200" width="320" height="1210" as="geometry" />
        </mxCell>
        <mxCell id="8nVvTNKNgAYmFWrz2rZh-8" value="Cardápio" style="rounded=1;whiteSpace=wrap;html=1;arcSize=40;fontColor=#000000;fillColor=#ffffc0;strokeColor=#ff0000;" vertex="1" parent="1">
          <mxGeometry x="520" y="255" width="120" height="40" as="geometry" />
        </mxCell>
        <mxCell id="8nVvTNKNgAYmFWrz2rZh-14" style="edgeStyle=orthogonalEdgeStyle;rounded=0;orthogonalLoop=1;jettySize=auto;html=1;" edge="1" parent="1" source="8nVvTNKNgAYmFWrz2rZh-10" target="8nVvTNKNgAYmFWrz2rZh-13">
          <mxGeometry relative="1" as="geometry" />
        </mxCell>
        <mxCell id="8nVvTNKNgAYmFWrz2rZh-17" style="edgeStyle=orthogonalEdgeStyle;rounded=0;orthogonalLoop=1;jettySize=auto;html=1;" edge="1" parent="1" source="8nVvTNKNgAYmFWrz2rZh-10" target="8nVvTNKNgAYmFWrz2rZh-15">
          <mxGeometry relative="1" as="geometry" />
        </mxCell>
        <mxCell id="8nVvTNKNgAYmFWrz2rZh-10" value="" style="shape=line;html=1;strokeWidth=6;strokeColor=#ff0000;" vertex="1" parent="1">
          <mxGeometry x="200" y="420" width="200" height="10" as="geometry" />
        </mxCell>
        <mxCell id="8nVvTNKNgAYmFWrz2rZh-12" style="edgeStyle=orthogonalEdgeStyle;rounded=0;orthogonalLoop=1;jettySize=auto;html=1;entryX=0.51;entryY=0.2;entryDx=0;entryDy=0;entryPerimeter=0;" edge="1" parent="1" source="8nVvTNKNgAYmFWrz2rZh-8" target="8nVvTNKNgAYmFWrz2rZh-10">
          <mxGeometry relative="1" as="geometry">
            <Array as="points">
              <mxPoint x="580" y="350" />
              <mxPoint x="302" y="350" />
            </Array>
          </mxGeometry>
        </mxCell>
        <mxCell id="8nVvTNKNgAYmFWrz2rZh-47" style="edgeStyle=orthogonalEdgeStyle;rounded=0;orthogonalLoop=1;jettySize=auto;html=1;" edge="1" parent="1" source="8nVvTNKNgAYmFWrz2rZh-13" target="8nVvTNKNgAYmFWrz2rZh-19">
          <mxGeometry relative="1" as="geometry" />
        </mxCell>
        <mxCell id="8nVvTNKNgAYmFWrz2rZh-13" value="Selecionar&lt;div&gt;itens&lt;/div&gt;" style="rounded=1;whiteSpace=wrap;html=1;arcSize=40;fontColor=#000000;fillColor=#ffffc0;strokeColor=#ff0000;" vertex="1" parent="1">
          <mxGeometry x="180" y="480" width="120" height="40" as="geometry" />
        </mxCell>
        <mxCell id="8nVvTNKNgAYmFWrz2rZh-15" value="Vizualizar&amp;nbsp;&lt;div&gt;itens&lt;/div&gt;" style="rounded=1;whiteSpace=wrap;html=1;arcSize=40;fontColor=#000000;fillColor=#ffffc0;strokeColor=#ff0000;" vertex="1" parent="1">
          <mxGeometry x="300" y="480" width="130" height="40" as="geometry" />
        </mxCell>
        <mxCell id="8nVvTNKNgAYmFWrz2rZh-27" style="edgeStyle=orthogonalEdgeStyle;rounded=0;orthogonalLoop=1;jettySize=auto;html=1;entryX=0.25;entryY=1;entryDx=0;entryDy=0;" edge="1" parent="1" source="8nVvTNKNgAYmFWrz2rZh-19" target="8nVvTNKNgAYmFWrz2rZh-13">
          <mxGeometry relative="1" as="geometry">
            <Array as="points">
              <mxPoint x="210" y="560" />
            </Array>
          </mxGeometry>
        </mxCell>
        <mxCell id="8nVvTNKNgAYmFWrz2rZh-28" value="YES" style="edgeLabel;html=1;align=center;verticalAlign=middle;resizable=0;points=[];" vertex="1" connectable="0" parent="8nVvTNKNgAYmFWrz2rZh-27">
          <mxGeometry x="0.5032" y="3" relative="1" as="geometry">
            <mxPoint as="offset" />
          </mxGeometry>
        </mxCell>
        <mxCell id="8nVvTNKNgAYmFWrz2rZh-87" value="NO" style="edgeLabel;html=1;align=center;verticalAlign=middle;resizable=0;points=[];" vertex="1" connectable="0" parent="8nVvTNKNgAYmFWrz2rZh-27">
          <mxGeometry x="0.5742" y="9" relative="1" as="geometry">
            <mxPoint as="offset" />
          </mxGeometry>
        </mxCell>
        <mxCell id="8nVvTNKNgAYmFWrz2rZh-19" value="Adicionar itens?" style="rhombus;whiteSpace=wrap;html=1;fontColor=#000000;fillColor=#ffffc0;strokeColor=#ff0000;" vertex="1" parent="1">
          <mxGeometry x="250" y="530" width="120" height="70" as="geometry" />
        </mxCell>
        <mxCell id="8nVvTNKNgAYmFWrz2rZh-32" style="edgeStyle=orthogonalEdgeStyle;rounded=0;orthogonalLoop=1;jettySize=auto;html=1;" edge="1" parent="1" source="8nVvTNKNgAYmFWrz2rZh-23" target="8nVvTNKNgAYmFWrz2rZh-31">
          <mxGeometry relative="1" as="geometry" />
        </mxCell>
        <mxCell id="8nVvTNKNgAYmFWrz2rZh-23" value="" style="shape=line;html=1;strokeWidth=6;strokeColor=#ff0000;" vertex="1" parent="1">
          <mxGeometry x="200" y="680" width="200" height="10" as="geometry" />
        </mxCell>
        <mxCell id="8nVvTNKNgAYmFWrz2rZh-24" style="edgeStyle=orthogonalEdgeStyle;rounded=0;orthogonalLoop=1;jettySize=auto;html=1;entryX=0.825;entryY=0.4;entryDx=0;entryDy=0;entryPerimeter=0;" edge="1" parent="1" source="8nVvTNKNgAYmFWrz2rZh-15" target="8nVvTNKNgAYmFWrz2rZh-23">
          <mxGeometry relative="1" as="geometry" />
        </mxCell>
        <mxCell id="8nVvTNKNgAYmFWrz2rZh-25" style="edgeStyle=orthogonalEdgeStyle;rounded=0;orthogonalLoop=1;jettySize=auto;html=1;entryX=0.555;entryY=0.4;entryDx=0;entryDy=0;entryPerimeter=0;" edge="1" parent="1" source="8nVvTNKNgAYmFWrz2rZh-19" target="8nVvTNKNgAYmFWrz2rZh-23">
          <mxGeometry relative="1" as="geometry">
            <Array as="points">
              <mxPoint x="310" y="640" />
            </Array>
          </mxGeometry>
        </mxCell>
        <mxCell id="8nVvTNKNgAYmFWrz2rZh-29" value="NO" style="edgeLabel;html=1;align=center;verticalAlign=middle;resizable=0;points=[];" vertex="1" connectable="0" parent="8nVvTNKNgAYmFWrz2rZh-25">
          <mxGeometry x="-0.2235" y="-2" relative="1" as="geometry">
            <mxPoint as="offset" />
          </mxGeometry>
        </mxCell>
        <mxCell id="8nVvTNKNgAYmFWrz2rZh-86" value="YES" style="edgeLabel;html=1;align=center;verticalAlign=middle;resizable=0;points=[];" vertex="1" connectable="0" parent="8nVvTNKNgAYmFWrz2rZh-25">
          <mxGeometry x="-0.1982" y="-2" relative="1" as="geometry">
            <mxPoint as="offset" />
          </mxGeometry>
        </mxCell>
        <mxCell id="8nVvTNKNgAYmFWrz2rZh-36" style="edgeStyle=orthogonalEdgeStyle;rounded=0;orthogonalLoop=1;jettySize=auto;html=1;entryX=1;entryY=0.75;entryDx=0;entryDy=0;" edge="1" parent="1" source="8nVvTNKNgAYmFWrz2rZh-30" target="8nVvTNKNgAYmFWrz2rZh-34">
          <mxGeometry relative="1" as="geometry">
            <Array as="points">
              <mxPoint x="600" y="850" />
            </Array>
          </mxGeometry>
        </mxCell>
        <mxCell id="8nVvTNKNgAYmFWrz2rZh-30" value="Registrar os itens" style="rounded=1;whiteSpace=wrap;html=1;arcSize=40;fontColor=#000000;fillColor=#ffffc0;strokeColor=#ff0000;" vertex="1" parent="1">
          <mxGeometry x="520" y="640" width="120" height="40" as="geometry" />
        </mxCell>
        <mxCell id="8nVvTNKNgAYmFWrz2rZh-31" value="Adicionar ao carrinho" style="rounded=1;whiteSpace=wrap;html=1;arcSize=40;fontColor=#000000;fillColor=#ffffc0;strokeColor=#ff0000;" vertex="1" parent="1">
          <mxGeometry x="240" y="730" width="120" height="40" as="geometry" />
        </mxCell>
        <mxCell id="8nVvTNKNgAYmFWrz2rZh-33" style="edgeStyle=orthogonalEdgeStyle;rounded=0;orthogonalLoop=1;jettySize=auto;html=1;entryX=0.5;entryY=1;entryDx=0;entryDy=0;" edge="1" parent="1" source="8nVvTNKNgAYmFWrz2rZh-31" target="8nVvTNKNgAYmFWrz2rZh-30">
          <mxGeometry relative="1" as="geometry" />
        </mxCell>
        <mxCell id="8nVvTNKNgAYmFWrz2rZh-38" style="edgeStyle=orthogonalEdgeStyle;rounded=0;orthogonalLoop=1;jettySize=auto;html=1;" edge="1" parent="1" source="8nVvTNKNgAYmFWrz2rZh-34">
          <mxGeometry relative="1" as="geometry">
            <mxPoint x="300" y="900" as="targetPoint" />
          </mxGeometry>
        </mxCell>
        <mxCell id="8nVvTNKNgAYmFWrz2rZh-34" value="realizar pagamento" style="rounded=1;whiteSpace=wrap;html=1;arcSize=40;fontColor=#000000;fillColor=#ffffc0;strokeColor=#ff0000;" vertex="1" parent="1">
          <mxGeometry x="240" y="820" width="120" height="40" as="geometry" />
        </mxCell>
        <mxCell id="8nVvTNKNgAYmFWrz2rZh-62" style="edgeStyle=orthogonalEdgeStyle;rounded=0;orthogonalLoop=1;jettySize=auto;html=1;" edge="1" parent="1" source="8nVvTNKNgAYmFWrz2rZh-39" target="8nVvTNKNgAYmFWrz2rZh-61">
          <mxGeometry relative="1" as="geometry" />
        </mxCell>
        <mxCell id="8nVvTNKNgAYmFWrz2rZh-39" value="Registra o pagamento" style="rounded=1;whiteSpace=wrap;html=1;arcSize=40;fontColor=#000000;fillColor=#ffffc0;strokeColor=#ff0000;" vertex="1" parent="1">
          <mxGeometry x="510" y="900" width="120" height="40" as="geometry" />
        </mxCell>
        <mxCell id="8nVvTNKNgAYmFWrz2rZh-43" style="edgeStyle=orthogonalEdgeStyle;rounded=0;orthogonalLoop=1;jettySize=auto;html=1;" edge="1" parent="1" source="8nVvTNKNgAYmFWrz2rZh-40" target="8nVvTNKNgAYmFWrz2rZh-34">
          <mxGeometry relative="1" as="geometry">
            <Array as="points">
              <mxPoint x="220" y="940" />
              <mxPoint x="220" y="840" />
            </Array>
          </mxGeometry>
        </mxCell>
        <mxCell id="8nVvTNKNgAYmFWrz2rZh-45" value="NO" style="edgeLabel;html=1;align=center;verticalAlign=middle;resizable=0;points=[];" vertex="1" connectable="0" parent="8nVvTNKNgAYmFWrz2rZh-43">
          <mxGeometry x="-0.0286" y="-1" relative="1" as="geometry">
            <mxPoint as="offset" />
          </mxGeometry>
        </mxCell>
        <mxCell id="8nVvTNKNgAYmFWrz2rZh-44" style="edgeStyle=orthogonalEdgeStyle;rounded=0;orthogonalLoop=1;jettySize=auto;html=1;" edge="1" parent="1" source="8nVvTNKNgAYmFWrz2rZh-40" target="8nVvTNKNgAYmFWrz2rZh-39">
          <mxGeometry relative="1" as="geometry" />
        </mxCell>
        <mxCell id="8nVvTNKNgAYmFWrz2rZh-46" value="YES" style="edgeLabel;html=1;align=center;verticalAlign=middle;resizable=0;points=[];" vertex="1" connectable="0" parent="8nVvTNKNgAYmFWrz2rZh-44">
          <mxGeometry x="-0.4118" y="4" relative="1" as="geometry">
            <mxPoint as="offset" />
          </mxGeometry>
        </mxCell>
        <mxCell id="8nVvTNKNgAYmFWrz2rZh-40" value="Pagamnento&lt;div&gt;aprovado?&lt;/div&gt;" style="rhombus;whiteSpace=wrap;html=1;fontColor=#000000;fillColor=#ffffc0;strokeColor=#ff0000;" vertex="1" parent="1">
          <mxGeometry x="240" y="900" width="120" height="80" as="geometry" />
        </mxCell>
        <mxCell id="8nVvTNKNgAYmFWrz2rZh-49" value="Cozinha" style="shape=umlFrame;whiteSpace=wrap;html=1;pointerEvents=0;" vertex="1" parent="1">
          <mxGeometry x="790" y="200" width="320" height="1210" as="geometry" />
        </mxCell>
        <mxCell id="8nVvTNKNgAYmFWrz2rZh-50" value="" style="shape=line;html=1;strokeWidth=6;strokeColor=#ff0000;" vertex="1" parent="1">
          <mxGeometry x="850" y="290" width="200" height="10" as="geometry" />
        </mxCell>
        <mxCell id="8nVvTNKNgAYmFWrz2rZh-51" value="" style="edgeStyle=orthogonalEdgeStyle;html=1;verticalAlign=bottom;endArrow=open;endSize=8;strokeColor=#ff0000;rounded=0;" edge="1" source="8nVvTNKNgAYmFWrz2rZh-50" parent="1">
          <mxGeometry relative="1" as="geometry">
            <mxPoint x="950" y="370" as="targetPoint" />
          </mxGeometry>
        </mxCell>
        <mxCell id="8nVvTNKNgAYmFWrz2rZh-52" value="Realizar pedido" style="rounded=1;whiteSpace=wrap;html=1;arcSize=40;fontColor=#000000;fillColor=#ffffc0;strokeColor=#ff0000;" vertex="1" parent="1">
          <mxGeometry x="890" y="360" width="120" height="40" as="geometry" />
        </mxCell>
        <mxCell id="8nVvTNKNgAYmFWrz2rZh-53" value="Mostrar pedido" style="rounded=1;whiteSpace=wrap;html=1;arcSize=40;fontColor=#000000;fillColor=#ffffc0;strokeColor=#ff0000;" vertex="1" parent="1">
          <mxGeometry x="600" y="490" width="120" height="40" as="geometry" />
        </mxCell>
        <mxCell id="8nVvTNKNgAYmFWrz2rZh-59" style="edgeStyle=orthogonalEdgeStyle;rounded=0;orthogonalLoop=1;jettySize=auto;html=1;" edge="1" parent="1" source="8nVvTNKNgAYmFWrz2rZh-54" target="8nVvTNKNgAYmFWrz2rZh-56">
          <mxGeometry relative="1" as="geometry" />
        </mxCell>
        <mxCell id="8nVvTNKNgAYmFWrz2rZh-54" value="" style="shape=line;html=1;strokeWidth=6;strokeColor=#ff0000;" vertex="1" parent="1">
          <mxGeometry x="850" y="495" width="200" height="10" as="geometry" />
        </mxCell>
        <mxCell id="8nVvTNKNgAYmFWrz2rZh-65" style="edgeStyle=orthogonalEdgeStyle;rounded=0;orthogonalLoop=1;jettySize=auto;html=1;" edge="1" parent="1" source="8nVvTNKNgAYmFWrz2rZh-56">
          <mxGeometry relative="1" as="geometry">
            <mxPoint x="1210.0588235294117" y="340" as="targetPoint" />
            <Array as="points">
              <mxPoint x="1140" y="565" />
              <mxPoint x="1140" y="340" />
            </Array>
          </mxGeometry>
        </mxCell>
        <mxCell id="8nVvTNKNgAYmFWrz2rZh-56" value="pedido autorizado" style="rounded=1;whiteSpace=wrap;html=1;arcSize=40;fontColor=#000000;fillColor=#ffffc0;strokeColor=#ff0000;" vertex="1" parent="1">
          <mxGeometry x="890" y="545" width="120" height="40" as="geometry" />
        </mxCell>
        <mxCell id="8nVvTNKNgAYmFWrz2rZh-57" style="edgeStyle=orthogonalEdgeStyle;rounded=0;orthogonalLoop=1;jettySize=auto;html=1;entryX=0.508;entryY=0.783;entryDx=0;entryDy=0;entryPerimeter=0;" edge="1" parent="1" source="8nVvTNKNgAYmFWrz2rZh-52" target="8nVvTNKNgAYmFWrz2rZh-54">
          <mxGeometry relative="1" as="geometry" />
        </mxCell>
        <mxCell id="8nVvTNKNgAYmFWrz2rZh-60" style="edgeStyle=orthogonalEdgeStyle;rounded=0;orthogonalLoop=1;jettySize=auto;html=1;entryX=0.813;entryY=-0.012;entryDx=0;entryDy=0;entryPerimeter=0;" edge="1" parent="1" source="8nVvTNKNgAYmFWrz2rZh-50" target="8nVvTNKNgAYmFWrz2rZh-53">
          <mxGeometry relative="1" as="geometry" />
        </mxCell>
        <mxCell id="8nVvTNKNgAYmFWrz2rZh-61" value="Confirmar pedido" style="rounded=1;whiteSpace=wrap;html=1;arcSize=40;fontColor=#000000;fillColor=#ffffc0;strokeColor=#ff0000;" vertex="1" parent="1">
          <mxGeometry x="660" y="830" width="120" height="40" as="geometry" />
        </mxCell>
        <mxCell id="8nVvTNKNgAYmFWrz2rZh-63" style="edgeStyle=orthogonalEdgeStyle;rounded=0;orthogonalLoop=1;jettySize=auto;html=1;entryX=0.25;entryY=0.5;entryDx=0;entryDy=0;entryPerimeter=0;" edge="1" parent="1" source="8nVvTNKNgAYmFWrz2rZh-61" target="8nVvTNKNgAYmFWrz2rZh-50">
          <mxGeometry relative="1" as="geometry">
            <Array as="points">
              <mxPoint x="750" y="250" />
              <mxPoint x="900" y="250" />
            </Array>
          </mxGeometry>
        </mxCell>
        <mxCell id="8nVvTNKNgAYmFWrz2rZh-64" value="Entregador" style="shape=umlFrame;whiteSpace=wrap;html=1;pointerEvents=0;" vertex="1" parent="1">
          <mxGeometry x="1110" y="200" width="320" height="1210" as="geometry" />
        </mxCell>
        <mxCell id="8nVvTNKNgAYmFWrz2rZh-69" style="edgeStyle=orthogonalEdgeStyle;rounded=0;orthogonalLoop=1;jettySize=auto;html=1;entryX=0.5;entryY=0;entryDx=0;entryDy=0;" edge="1" parent="1" source="8nVvTNKNgAYmFWrz2rZh-67" target="8nVvTNKNgAYmFWrz2rZh-68">
          <mxGeometry relative="1" as="geometry" />
        </mxCell>
        <mxCell id="8nVvTNKNgAYmFWrz2rZh-67" value="Retirar pedido" style="rounded=1;whiteSpace=wrap;html=1;arcSize=40;fontColor=#000000;fillColor=#ffffc0;strokeColor=#ff0000;" vertex="1" parent="1">
          <mxGeometry x="1210" y="320" width="120" height="40" as="geometry" />
        </mxCell>
        <mxCell id="8nVvTNKNgAYmFWrz2rZh-71" style="edgeStyle=orthogonalEdgeStyle;rounded=0;orthogonalLoop=1;jettySize=auto;html=1;" edge="1" parent="1" target="8nVvTNKNgAYmFWrz2rZh-70">
          <mxGeometry relative="1" as="geometry">
            <mxPoint x="1280.0588235294117" y="510" as="sourcePoint" />
            <mxPoint x="760" y="1020" as="targetPoint" />
            <Array as="points">
              <mxPoint x="1280" y="1020" />
            </Array>
          </mxGeometry>
        </mxCell>
        <mxCell id="8nVvTNKNgAYmFWrz2rZh-68" value="Entregar o pedido" style="rounded=1;whiteSpace=wrap;html=1;arcSize=40;fontColor=#000000;fillColor=#ffffc0;strokeColor=#ff0000;" vertex="1" parent="1">
          <mxGeometry x="1210" y="470" width="120" height="40" as="geometry" />
        </mxCell>
        <mxCell id="8nVvTNKNgAYmFWrz2rZh-70" value="rastreia a entrega" style="rounded=1;whiteSpace=wrap;html=1;arcSize=40;fontColor=#000000;fillColor=#ffffc0;strokeColor=#ff0000;" vertex="1" parent="1">
          <mxGeometry x="610" y="1000" width="120" height="40" as="geometry" />
        </mxCell>
        <mxCell id="8nVvTNKNgAYmFWrz2rZh-74" style="edgeStyle=orthogonalEdgeStyle;rounded=0;orthogonalLoop=1;jettySize=auto;html=1;" edge="1" parent="1" source="8nVvTNKNgAYmFWrz2rZh-72" target="8nVvTNKNgAYmFWrz2rZh-73">
          <mxGeometry relative="1" as="geometry" />
        </mxCell>
        <mxCell id="8nVvTNKNgAYmFWrz2rZh-75" value="YES" style="edgeLabel;html=1;align=center;verticalAlign=middle;resizable=0;points=[];" vertex="1" connectable="0" parent="8nVvTNKNgAYmFWrz2rZh-74">
          <mxGeometry x="-0.172" y="2" relative="1" as="geometry">
            <mxPoint y="1" as="offset" />
          </mxGeometry>
        </mxCell>
        <mxCell id="8nVvTNKNgAYmFWrz2rZh-84" style="edgeStyle=orthogonalEdgeStyle;rounded=0;orthogonalLoop=1;jettySize=auto;html=1;" edge="1" parent="1" source="8nVvTNKNgAYmFWrz2rZh-72" target="8nVvTNKNgAYmFWrz2rZh-83">
          <mxGeometry relative="1" as="geometry">
            <Array as="points">
              <mxPoint x="210" y="1050" />
              <mxPoint x="210" y="1250" />
            </Array>
          </mxGeometry>
        </mxCell>
        <mxCell id="8nVvTNKNgAYmFWrz2rZh-72" value="Entrega realizada com sucesso?" style="rhombus;whiteSpace=wrap;html=1;fontColor=#000000;fillColor=#ffffc0;strokeColor=#ff0000;" vertex="1" parent="1">
          <mxGeometry x="250" y="1010" width="120" height="80" as="geometry" />
        </mxCell>
        <mxCell id="8nVvTNKNgAYmFWrz2rZh-78" style="edgeStyle=orthogonalEdgeStyle;rounded=0;orthogonalLoop=1;jettySize=auto;html=1;" edge="1" parent="1" source="8nVvTNKNgAYmFWrz2rZh-73" target="8nVvTNKNgAYmFWrz2rZh-77">
          <mxGeometry relative="1" as="geometry" />
        </mxCell>
        <mxCell id="8nVvTNKNgAYmFWrz2rZh-73" value="Confirmar entrega" style="rounded=1;whiteSpace=wrap;html=1;arcSize=40;fontColor=#000000;fillColor=#ffffc0;strokeColor=#ff0000;" vertex="1" parent="1">
          <mxGeometry x="250" y="1140" width="120" height="40" as="geometry" />
        </mxCell>
        <mxCell id="8nVvTNKNgAYmFWrz2rZh-77" value="Registra a entrega" style="rounded=1;whiteSpace=wrap;html=1;arcSize=40;fontColor=#000000;fillColor=#ffffc0;strokeColor=#ff0000;" vertex="1" parent="1">
          <mxGeometry x="570" y="1140" width="120" height="40" as="geometry" />
        </mxCell>
        <mxCell id="8nVvTNKNgAYmFWrz2rZh-79" value="" style="ellipse;html=1;shape=endState;fillColor=#000000;strokeColor=#ff0000;" vertex="1" parent="1">
          <mxGeometry x="740" y="1120" width="30" height="30" as="geometry" />
        </mxCell>
        <mxCell id="8nVvTNKNgAYmFWrz2rZh-80" style="edgeStyle=orthogonalEdgeStyle;rounded=0;orthogonalLoop=1;jettySize=auto;html=1;entryX=0.473;entryY=0.724;entryDx=0;entryDy=0;entryPerimeter=0;" edge="1" parent="1" source="8nVvTNKNgAYmFWrz2rZh-77" target="8nVvTNKNgAYmFWrz2rZh-79">
          <mxGeometry relative="1" as="geometry" />
        </mxCell>
        <mxCell id="8nVvTNKNgAYmFWrz2rZh-83" value="Notifica o sistema" style="rounded=1;whiteSpace=wrap;html=1;arcSize=40;fontColor=#000000;fillColor=#ffffc0;strokeColor=#ff0000;" vertex="1" parent="1">
          <mxGeometry x="570" y="1220" width="120" height="40" as="geometry" />
        </mxCell>
      </root>
    </mxGraphModel>
  </diagram>
</mxfile>
